<?xml version="1.0" encoding="UTF-8" standalone="no"?> <svg width="64" height="64" viewBox="0 0 64 64" fill="none" xmlns="http://www.w3.org/2000/svg">
<path d="M3 59C3 59.5304 3.21071 60.0391 3.58579 60.4142C3.96086 60.7893 4.46957 61 5 61H59C59.5304 61 60.0391 60.7893 60.4142 60.4142C60.7893 60.0391 61 59.5304 61 59V55H3V59Z" fill="#005ECE"/>
<path d="M61 55H3L7.72 26.67C7.79913 26.2042 8.04012 25.7813 8.40051 25.4758C8.7609 25.1703 9.21755 25.0018 9.69 25H33C33.0016 25.5299 33.2128 26.0377 33.5875 26.4125C33.9623 26.7872 34.4701 26.9984 35 27H56.33L61 55Z" fill="#2488FF"/>
<path d="M56.33 27C56.9046 30.4447 56.7219 33.9732 55.7947 37.3402C54.8674 40.7071 53.2178 43.8317 50.9606 46.4965C48.7034 49.1613 45.8928 51.3024 42.7243 52.7709C39.5557 54.2394 36.1053 55.0001 32.613 55H61L56.33 27Z" fill="#006DF0"/>
<path d="M59 9H35C33.8954 9 33 9.89543 33 11V25C33 26.1046 33.8954 27 35 27H59C60.1046 27 61 26.1046 61 25V11C61 9.89543 60.1046 9 59 9Z" fill="#FF6243"/>
<path d="M45 27H59C59.5299 26.9984 60.0377 26.7872 60.4125 26.4125C60.7872 26.0377 60.9984 25.5299 61 25V11C60.9876 15.2397 59.2979 19.3021 56.3 22.3C53.3021 25.2979 49.2397 26.9876 45 27Z" fill="#FF5023"/>
<path d="M42.9999 13H41.0049V16H44.9999V15C44.9999 14.4696 44.7892 13.9609 44.4141 13.5858C44.039 13.2107 43.5303 13 42.9999 13Z" fill="#FFA733"/>
<path d="M39 13C38.4696 13 37.9609 13.2107 37.5858 13.5858C37.2107 13.9609 37 14.4696 37 15V17C37 17.5304 37.2107 18.0391 37.5858 18.4142C37.9609 18.7893 38.4696 19 39 19H41.005V16V13H39Z" fill="#FF9811"/>
<path d="M41.0049 19H42.9999C43.5303 19 44.039 18.7893 44.4141 18.4142C44.7892 18.0391 44.9999 17.5304 44.9999 17V16H41.0049V19Z" fill="#EE8700"/>
<path d="M39 40H37C36.4477 40 36 40.4477 36 41V43C36 43.5523 36.4477 44 37 44H39C39.5523 44 40 43.5523 40 43V41C40 40.4477 39.5523 40 39 40Z" fill="#FF9811"/>
<path d="M46 40H44C43.4477 40 43 40.4477 43 41V43C43 43.5523 43.4477 44 44 44H46C46.5523 44 47 43.5523 47 43V41C47 40.4477 46.5523 40 46 40Z" fill="#FF9811"/>
<path d="M53 40H51C50.4477 40 50 40.4477 50 41V43C50 43.5523 50.4477 44 51 44H53C53.5523 44 54 43.5523 54 43V41C54 40.4477 53.5523 40 53 40Z" fill="#FF9811"/>
<path d="M37 33H35C34.4477 33 34 33.4477 34 34V36C34 36.5523 34.4477 37 35 37H37C37.5523 37 38 36.5523 38 36V34C38 33.4477 37.5523 33 37 33Z" fill="#FF9811"/>
<path d="M44 33H42C41.4477 33 41 33.4477 41 34V36C41 36.5523 41.4477 37 42 37H44C44.5523 37 45 36.5523 45 36V34C45 33.4477 44.5523 33 44 33Z" fill="#FF9811"/>
<path d="M51 33H49C48.4477 33 48 33.4477 48 34V36C48 36.5523 48.4477 37 49 37H51C51.5523 37 52 36.5523 52 36V34C52 33.4477 51.5523 33 51 33Z" fill="#FF9811"/>
<path d="M41 47H39C38.4477 47 38 47.4477 38 48V50C38 50.5523 38.4477 51 39 51H41C41.5523 51 42 50.5523 42 50V48C42 47.4477 41.5523 47 41 47Z" fill="#FF9811"/>
<path d="M48 47H46C45.4477 47 45 47.4477 45 48V50C45 50.5523 45.4477 51 46 51H48C48.5523 51 49 50.5523 49 50V48C49 47.4477 48.5523 47 48 47Z" fill="#FF9811"/>
<path d="M55 47H53C52.4477 47 52 47.4477 52 48V50C52 50.5523 52.4477 51 53 51H55C55.5523 51 56 50.5523 56 50V48C56 47.4477 55.5523 47 55 47Z" fill="#FF9811"/>
<path d="M30 33H12L9 51H33L30 33Z" fill="#FF9811"/>
<path d="M29 3V29H13V3L15.66 5L18.33 3L20.99 5L23.66 3L26.33 5L29 3Z" fill="#FFDAAA"/>
<path d="M13 29H29V13C29 17.2435 27.3143 21.3131 24.3137 24.3137C21.3131 27.3143 17.2435 29 13 29V29Z" fill="#FFC477"/>
<path d="M21 39C22.221 39 23 39.592 23 40C23 40.2652 23.1054 40.5195 23.2929 40.7071C23.4804 40.8946 23.7348 41 24 41C24.2652 41 24.5196 40.8946 24.7071 40.7071C24.8946 40.5195 25 40.2652 25 40C25 38.579 23.741 37.429 22 37.1V36.059C22 35.7937 21.8946 35.5394 21.7071 35.3519C21.5196 35.1643 21.2652 35.059 21 35.059C20.7348 35.059 20.4804 35.1643 20.2929 35.3519C20.1054 35.5394 20 35.7937 20 36.059V37.1C18.259 37.427 17 38.577 17 40C17 41.682 18.757 43 21 43C22.221 43 23 43.592 23 44C23 44.408 22.221 45 21 45C19.779 45 19 44.408 19 44C19 43.7347 18.8946 43.4804 18.7071 43.2929C18.5196 43.1053 18.2652 43 18 43C17.7348 43 17.4804 43.1053 17.2929 43.2929C17.1054 43.4804 17 43.7347 17 44C17 45.421 18.259 46.571 20 46.9V48C20 48.2652 20.1054 48.5195 20.2929 48.7071C20.4804 48.8946 20.7348 49 21 49C21.2652 49 21.5196 48.8946 21.7071 48.7071C21.8946 48.5195 22 48.2652 22 48V46.9C23.741 46.573 25 45.423 25 44C25 42.318 23.243 41 21 41C19.779 41 19 40.408 19 40C19 39.592 19.779 39 21 39Z" fill="#F1F2F2"/>
<path d="M37 24H39C39.2652 24 39.5196 23.8946 39.7071 23.7071C39.8946 23.5196 40 23.2652 40 23C40 22.7348 39.8946 22.4804 39.7071 22.2929C39.5196 22.1054 39.2652 22 39 22H37C36.7348 22 36.4804 22.1054 36.2929 22.2929C36.1054 22.4804 36 22.7348 36 23C36 23.2652 36.1054 23.5196 36.2929 23.7071C36.4804 23.8946 36.7348 24 37 24Z" fill="#F1F2F2"/>
<path d="M45 22H43C42.7348 22 42.4804 22.1054 42.2929 22.2929C42.1054 22.4804 42 22.7348 42 23C42 23.2652 42.1054 23.5196 42.2929 23.7071C42.4804 23.8946 42.7348 24 43 24H45C45.2652 24 45.5196 23.8946 45.7071 23.7071C45.8946 23.5196 46 23.2652 46 23C46 22.7348 45.8946 22.4804 45.7071 22.2929C45.5196 22.1054 45.2652 22 45 22Z" fill="#F1F2F2"/>
<path d="M49 24H51C51.2652 24 51.5196 23.8946 51.7071 23.7071C51.8946 23.5196 52 23.2652 52 23C52 22.7348 51.8946 22.4804 51.7071 22.2929C51.5196 22.1054 51.2652 22 51 22H49C48.7348 22 48.4804 22.1054 48.2929 22.2929C48.1054 22.4804 48 22.7348 48 23C48 23.2652 48.1054 23.5196 48.2929 23.7071C48.4804 23.8946 48.7348 24 49 24Z" fill="#F1F2F2"/>
<path d="M55 24H57C57.2652 24 57.5196 23.8946 57.7071 23.7071C57.8946 23.5196 58 23.2652 58 23C58 22.7348 57.8946 22.4804 57.7071 22.2929C57.5196 22.1054 57.2652 22 57 22H55C54.7348 22 54.4804 22.1054 54.2929 22.2929C54.1054 22.4804 54 22.7348 54 23C54 23.2652 54.1054 23.5196 54.2929 23.7071C54.4804 23.8946 54.7348 24 55 24Z" fill="#F1F2F2"/>
<path d="M16 10H22C22.2652 10 22.5196 9.89464 22.7071 9.70711C22.8946 9.51957 23 9.26522 23 9C23 8.73478 22.8946 8.48043 22.7071 8.29289C22.5196 8.10536 22.2652 8 22 8H16C15.7348 8 15.4804 8.10536 15.2929 8.29289C15.1054 8.48043 15 8.73478 15 9C15 9.26522 15.1054 9.51957 15.2929 9.70711C15.4804 9.89464 15.7348 10 16 10V10Z" fill="#FF7956"/>
<path d="M25 10H26C26.2652 10 26.5196 9.89464 26.7071 9.70711C26.8946 9.51957 27 9.26522 27 9C27 8.73478 26.8946 8.48043 26.7071 8.29289C26.5196 8.10536 26.2652 8 26 8H25C24.7348 8 24.4804 8.10536 24.2929 8.29289C24.1054 8.48043 24 8.73478 24 9C24 9.26522 24.1054 9.51957 24.2929 9.70711C24.4804 9.89464 24.7348 10 25 10Z" fill="#FF7956"/>
<path d="M16 14H22C22.2652 14 22.5196 13.8946 22.7071 13.7071C22.8946 13.5196 23 13.2652 23 13C23 12.7348 22.8946 12.4804 22.7071 12.2929C22.5196 12.1054 22.2652 12 22 12H16C15.7348 12 15.4804 12.1054 15.2929 12.2929C15.1054 12.4804 15 12.7348 15 13C15 13.2652 15.1054 13.5196 15.2929 13.7071C15.4804 13.8946 15.7348 14 16 14V14Z" fill="#FF7956"/>
<path d="M25 14H26C26.2652 14 26.5196 13.8946 26.7071 13.7071C26.8946 13.5196 27 13.2652 27 13C27 12.7348 26.8946 12.4804 26.7071 12.2929C26.5196 12.1054 26.2652 12 26 12H25C24.7348 12 24.4804 12.1054 24.2929 12.2929C24.1054 12.4804 24 12.7348 24 13C24 13.2652 24.1054 13.5196 24.2929 13.7071C24.4804 13.8946 24.7348 14 25 14Z" fill="#FF7956"/>
<path d="M16 18H22C22.2652 18 22.5196 17.8946 22.7071 17.7071C22.8946 17.5196 23 17.2652 23 17C23 16.7348 22.8946 16.4804 22.7071 16.2929C22.5196 16.1054 22.2652 16 22 16H16C15.7348 16 15.4804 16.1054 15.2929 16.2929C15.1054 16.4804 15 16.7348 15 17C15 17.2652 15.1054 17.5196 15.2929 17.7071C15.4804 17.8946 15.7348 18 16 18V18Z" fill="#FF7956"/>
<path d="M25 18H26C26.2652 18 26.5196 17.8946 26.7071 17.7071C26.8946 17.5196 27 17.2652 27 17C27 16.7348 26.8946 16.4804 26.7071 16.2929C26.5196 16.1054 26.2652 16 26 16H25C24.7348 16 24.4804 16.1054 24.2929 16.2929C24.1054 16.4804 24 16.7348 24 17C24 17.2652 24.1054 17.5196 24.2929 17.7071C24.4804 17.8946 24.7348 18 25 18Z" fill="#FF7956"/>
<path d="M16 22H22C22.2652 22 22.5196 21.8946 22.7071 21.7071C22.8946 21.5196 23 21.2652 23 21C23 20.7348 22.8946 20.4804 22.7071 20.2929C22.5196 20.1054 22.2652 20 22 20H16C15.7348 20 15.4804 20.1054 15.2929 20.2929C15.1054 20.4804 15 20.7348 15 21C15 21.2652 15.1054 21.5196 15.2929 21.7071C15.4804 21.8946 15.7348 22 16 22V22Z" fill="#FF7956"/>
<path d="M25 22H26C26.2652 22 26.5196 21.8946 26.7071 21.7071C26.8946 21.5196 27 21.2652 27 21C27 20.7348 26.8946 20.4804 26.7071 20.2929C26.5196 20.1054 26.2652 20 26 20H25C24.7348 20 24.4804 20.1054 24.2929 20.2929C24.1054 20.4804 24 20.7348 24 21C24 21.2652 24.1054 21.5196 24.2929 21.7071C24.4804 21.8946 24.7348 22 25 22Z" fill="#FF7956"/>
<path d="M16 26H22C22.2652 26 22.5196 25.8946 22.7071 25.7071C22.8946 25.5196 23 25.2652 23 25C23 24.7348 22.8946 24.4804 22.7071 24.2929C22.5196 24.1054 22.2652 24 22 24H16C15.7348 24 15.4804 24.1054 15.2929 24.2929C15.1054 24.4804 15 24.7348 15 25C15 25.2652 15.1054 25.5196 15.2929 25.7071C15.4804 25.8946 15.7348 26 16 26V26Z" fill="#FF7956"/>
<path d="M25 26H26C26.2652 26 26.5196 25.8946 26.7071 25.7071C26.8946 25.5196 27 25.2652 27 25C27 24.7348 26.8946 24.4804 26.7071 24.2929C26.5196 24.1054 26.2652 24 26 24H25C24.7348 24 24.4804 24.1054 24.2929 24.2929C24.1054 24.4804 24 24.7348 24 25C24 25.2652 24.1054 25.5196 24.2929 25.7071C24.4804 25.8946 24.7348 26 25 26Z" fill="#FF7956"/>
<path d="M31 28H11C10.4477 28 10 28.4477 10 29C10 29.5523 10.4477 30 11 30H31C31.5523 30 32 29.5523 32 29C32 28.4477 31.5523 28 31 28Z" fill="#006DF0"/>
</svg>
